<svg id="svg" version="1.1" xmlns="http://www.w3.org/2000/svg" xmlns:xlink="http://www.w3.org/1999/xlink" width="400" height="102.5" viewBox="0, 0, 400,102.5"><g id="svgg"><path id="path0" d="M58.917 41.167 C 58.619 41.495,58.403 41.500,44.258 41.500 C 33.313 41.500,29.852 41.548,29.700 41.700 C 29.449 41.951,29.414 60.105,29.663 60.500 C 29.801 60.718,31.675 60.761,44.319 60.833 C 55.604 60.898,58.863 60.963,59.025 61.125 C 59.343 61.443,63.061 61.411,63.556 61.086 C 63.880 60.874,65.401 60.837,74.134 60.831 L 84.333 60.823 84.334 51.120 L 84.334 41.417 79.709 41.520 C 77.165 41.577,72.670 41.634,69.721 41.645 L 64.359 41.667 63.864 41.250 C 63.173 40.669,59.424 40.606,58.917 41.167 " stroke="none" fill="#ababab" fill-rule="evenodd"></path><path id="path1" d="M0.000 51.250 L 0.000 102.500 29.494 102.500 C 58.484 102.500,58.991 102.494,59.161 102.178 C 59.492 101.559,59.391 61.422,59.058 61.145 C 58.831 60.957,56.239 60.902,44.302 60.833 C 31.673 60.761,29.801 60.718,29.663 60.500 C 29.414 60.105,29.449 41.951,29.700 41.700 C 29.852 41.548,33.313 41.500,44.258 41.500 C 58.403 41.500,58.619 41.495,58.917 41.167 C 59.440 40.589,63.175 40.670,63.893 41.275 L 64.417 41.717 74.250 41.599 C 79.658 41.534,84.140 41.425,84.209 41.357 C 84.278 41.288,84.316 31.974,84.292 20.658 L 84.250 0.083 73.841 0.083 L 63.432 0.083 63.316 0.500 C 63.252 0.729,63.192 9.860,63.183 20.792 L 63.167 40.667 61.250 40.667 L 59.333 40.667 59.333 20.597 C 59.333 9.559,59.288 0.409,59.232 0.264 C 59.140 0.025,56.372 0.000,29.566 0.000 L 0.000 0.000 0.000 51.250 M88.385 0.208 C 88.113 0.628,88.135 101.269,88.407 101.919 L 88.650 102.500 116.041 102.500 C 137.124 102.500,143.479 102.454,143.633 102.300 C 143.784 102.149,143.833 99.698,143.833 92.292 L 143.833 82.484 143.392 82.075 L 142.951 81.667 126.142 81.667 L 109.333 81.667 109.333 71.500 L 109.333 61.333 120.827 61.333 C 132.021 61.333,132.326 61.325,132.494 61.011 C 132.788 60.462,132.727 41.479,132.430 41.074 C 132.201 40.760,131.858 40.749,120.763 40.704 L 109.333 40.658 109.333 30.412 L 109.333 20.167 126.321 20.167 C 141.543 20.167,143.337 20.139,143.571 19.905 C 143.839 19.637,143.992 0.942,143.732 0.264 C 143.596 -0.092,88.615 -0.147,88.385 0.208 M147.833 50.928 C 147.833 85.715,147.888 101.957,148.006 102.178 C 148.174 102.491,148.464 102.500,158.312 102.500 L 168.446 102.500 168.640 102.075 C 168.781 101.765,168.833 98.284,168.833 89.159 C 168.833 80.942,168.890 76.667,169.000 76.667 C 169.092 76.667,169.167 76.802,169.167 76.967 C 169.167 77.132,169.235 77.338,169.318 77.425 C 169.455 77.569,170.423 79.381,171.984 82.417 C 172.313 83.058,172.640 83.608,172.708 83.639 C 172.777 83.669,172.833 83.795,172.833 83.917 C 172.833 84.125,173.315 85.148,173.500 85.333 C 173.546 85.379,174.100 86.429,174.731 87.667 C 175.363 88.904,176.370 90.854,176.969 92.000 C 177.568 93.146,178.435 94.833,178.895 95.750 C 179.355 96.667,179.792 97.442,179.866 97.472 C 179.940 97.503,180.000 97.623,180.000 97.738 C 180.000 97.960,180.488 99.025,180.655 99.167 C 180.709 99.212,180.974 99.700,181.243 100.250 C 181.512 100.800,181.907 101.532,182.119 101.876 L 182.506 102.503 192.711 102.460 L 202.917 102.417 202.972 101.931 C 203.003 101.657,202.851 101.078,202.622 100.598 C 202.399 100.132,202.023 99.337,201.788 98.833 C 201.552 98.329,200.989 97.129,200.536 96.167 C 200.083 95.204,199.576 94.098,199.408 93.708 C 199.240 93.319,199.042 93.000,198.968 93.000 C 198.894 93.000,198.833 92.892,198.833 92.760 C 198.833 92.628,198.533 91.873,198.167 91.083 C 197.800 90.293,197.500 89.576,197.500 89.490 C 197.500 89.404,197.425 89.333,197.333 89.333 C 197.242 89.333,197.167 89.228,197.167 89.099 C 197.167 88.970,196.985 88.501,196.763 88.057 C 196.541 87.613,196.045 86.575,195.661 85.750 C 195.276 84.925,194.642 83.575,194.251 82.750 C 193.860 81.925,193.488 81.081,193.425 80.875 C 193.362 80.669,193.241 80.500,193.155 80.500 C 193.070 80.500,193.000 80.386,193.000 80.248 C 193.000 80.109,192.928 79.865,192.840 79.706 C 192.752 79.547,192.333 78.667,191.908 77.750 C 191.484 76.833,190.813 75.408,190.418 74.583 C 190.023 73.758,189.384 72.408,188.997 71.583 C 188.611 70.758,187.975 69.408,187.584 68.583 C 187.193 67.758,186.822 66.915,186.759 66.708 C 186.696 66.502,186.574 66.333,186.489 66.333 C 186.403 66.333,186.333 66.220,186.333 66.081 C 186.333 65.942,186.261 65.699,186.173 65.539 C 185.804 64.875,184.167 61.324,184.167 61.190 C 184.167 61.110,184.484 61.001,184.871 60.949 C 185.259 60.897,185.603 60.775,185.635 60.677 C 185.668 60.580,185.835 60.500,186.007 60.500 C 186.476 60.500,188.167 59.951,188.167 59.799 C 188.167 59.726,188.275 59.667,188.408 59.667 C 188.540 59.667,189.002 59.479,189.433 59.250 C 189.864 59.021,190.282 58.833,190.362 58.833 C 190.556 58.833,192.735 57.464,192.806 57.297 C 192.836 57.225,192.944 57.167,193.045 57.167 C 193.146 57.167,193.608 56.848,194.073 56.459 C 194.537 56.069,195.058 55.638,195.230 55.500 C 196.989 54.096,200.500 49.687,200.500 48.883 C 200.500 48.764,200.575 48.667,200.667 48.667 C 200.758 48.667,200.833 48.594,200.833 48.505 C 200.833 48.415,201.016 47.947,201.240 47.463 C 201.918 45.995,202.167 45.311,202.167 44.910 C 202.167 44.700,202.251 44.500,202.355 44.465 C 202.559 44.397,202.812 43.278,202.949 41.836 C 202.996 41.334,203.140 40.773,203.268 40.591 C 203.613 40.098,203.613 20.735,203.268 20.242 C 203.140 20.060,202.999 19.500,202.955 18.997 C 202.860 17.926,202.547 16.650,202.324 16.425 C 202.237 16.338,202.167 16.113,202.167 15.925 C 202.168 14.729,198.855 9.383,196.667 7.049 C 194.452 4.686,189.162 1.170,187.819 1.167 C 187.674 1.167,187.507 1.118,187.448 1.059 C 187.232 0.844,185.570 0.344,185.052 0.339 C 184.759 0.336,184.473 0.258,184.417 0.167 C 184.349 0.057,178.054 0.000,166.073 0.000 L 147.833 0.000 147.833 50.928 M207.496 0.426 C 207.179 1.262,207.283 101.260,207.602 101.933 L 207.871 102.500 217.815 102.500 L 227.759 102.500 228.088 102.125 C 228.405 101.763,228.420 101.402,228.500 91.750 C 228.546 86.250,228.633 82.012,228.693 82.333 C 228.871 83.282,229.162 84.393,229.325 84.750 C 229.409 84.933,229.514 85.308,229.558 85.583 C 229.694 86.423,230.010 87.560,230.157 87.743 C 230.233 87.839,230.333 88.217,230.379 88.583 C 230.424 88.950,230.589 89.662,230.744 90.167 C 231.015 91.046,231.088 91.323,231.492 93.000 C 231.591 93.412,231.741 93.900,231.825 94.083 C 231.909 94.267,232.015 94.642,232.061 94.917 C 232.208 95.789,232.579 97.135,232.708 97.264 C 232.777 97.333,232.833 97.569,232.833 97.788 C 232.833 98.217,233.258 99.731,233.512 100.206 C 233.597 100.365,233.667 100.698,233.667 100.946 C 233.667 101.193,233.835 101.644,234.042 101.947 L 234.417 102.498 247.250 102.493 C 261.675 102.488,260.734 102.574,260.948 101.253 C 261.001 100.926,261.110 100.618,261.189 100.569 C 261.268 100.520,261.333 100.200,261.333 99.857 C 261.333 99.514,261.417 99.149,261.520 99.047 C 261.702 98.865,261.931 98.012,262.115 96.833 C 262.165 96.513,262.273 96.167,262.354 96.066 C 262.488 95.897,262.704 95.056,262.948 93.750 C 263.000 93.475,263.108 93.167,263.188 93.066 C 263.335 92.881,263.613 91.758,263.782 90.667 C 263.832 90.346,263.939 90.000,264.020 89.899 C 264.158 89.727,264.407 88.747,264.608 87.583 C 264.656 87.308,264.801 86.847,264.931 86.558 C 265.060 86.269,265.167 85.842,265.167 85.610 C 265.167 85.377,265.242 85.140,265.333 85.083 C 265.425 85.027,265.502 84.704,265.505 84.365 C 265.508 84.027,265.621 83.604,265.755 83.426 C 265.890 83.249,266.000 82.954,266.000 82.772 C 266.000 82.444,266.062 82.203,266.560 80.583 C 266.702 80.125,266.848 79.563,266.886 79.333 C 266.924 79.104,266.965 84.104,266.977 90.445 C 266.990 96.785,267.046 102.091,267.101 102.236 C 267.192 102.473,268.249 102.500,277.333 102.500 C 286.418 102.500,287.475 102.473,287.566 102.236 C 287.698 101.892,287.698 0.608,287.566 0.264 C 287.475 0.027,286.404 0.000,277.178 0.000 L 266.891 0.000 266.555 0.375 C 266.371 0.581,266.090 1.200,265.932 1.750 C 265.774 2.300,265.574 2.922,265.489 3.133 C 265.403 3.343,265.333 3.738,265.333 4.010 C 265.333 4.282,265.264 4.635,265.179 4.794 C 264.925 5.269,264.500 6.783,264.500 7.212 C 264.500 7.431,264.444 7.667,264.375 7.736 C 264.220 7.891,263.836 9.356,263.716 10.250 C 263.666 10.617,263.575 10.954,263.512 11.000 C 263.450 11.046,263.305 11.458,263.191 11.917 C 263.077 12.375,262.918 13.012,262.838 13.333 C 262.758 13.654,262.567 14.329,262.412 14.833 C 262.258 15.338,262.097 16.012,262.055 16.333 C 262.014 16.654,261.916 17.067,261.838 17.250 C 261.545 17.941,261.167 19.328,261.167 19.712 C 261.167 19.931,261.110 20.167,261.042 20.236 C 260.887 20.391,260.503 21.856,260.382 22.750 C 260.333 23.117,260.236 23.454,260.167 23.500 C 260.098 23.546,259.953 23.958,259.845 24.417 C 259.478 25.968,259.360 26.415,259.077 27.333 C 258.922 27.837,258.758 28.550,258.712 28.917 C 258.666 29.283,258.567 29.661,258.490 29.757 C 258.332 29.954,258.012 31.132,257.882 32.000 C 257.833 32.321,257.734 32.658,257.662 32.750 C 257.589 32.842,257.476 33.217,257.410 33.583 C 257.344 33.950,257.234 34.325,257.165 34.417 C 257.096 34.508,257.001 34.846,256.954 35.167 C 256.907 35.487,256.741 36.162,256.585 36.667 C 256.429 37.171,256.266 37.808,256.223 38.083 C 256.179 38.358,256.080 38.733,256.003 38.917 C 255.826 39.334,255.497 40.589,255.391 41.250 C 255.347 41.525,255.247 41.900,255.170 42.083 C 254.848 42.848,254.500 44.180,254.500 44.646 C 254.500 44.922,254.429 45.191,254.343 45.244 C 254.257 45.297,254.135 45.678,254.074 46.089 C 254.012 46.501,253.895 46.878,253.814 46.929 C 253.733 46.979,253.665 47.221,253.663 47.468 C 253.661 47.715,253.474 48.442,253.247 49.083 C 253.020 49.725,252.834 50.457,252.834 50.711 C 252.834 50.964,252.764 51.301,252.679 51.461 C 252.425 51.935,252.000 53.450,252.000 53.879 C 252.000 54.098,251.944 54.334,251.875 54.403 C 251.746 54.532,251.375 55.877,251.228 56.750 C 251.182 57.025,251.075 57.400,250.992 57.583 C 250.908 57.767,250.758 58.254,250.659 58.667 C 250.256 60.340,250.182 60.620,249.912 61.500 C 249.758 62.004,249.597 62.679,249.555 63.000 C 249.514 63.321,249.411 63.733,249.328 63.917 C 248.978 64.684,248.671 65.785,248.669 66.282 C 248.668 66.574,248.596 66.857,248.510 66.911 C 248.423 66.964,248.302 67.344,248.240 67.756 C 248.179 68.167,248.062 68.545,247.981 68.595 C 247.900 68.645,247.833 68.903,247.833 69.169 C 247.833 69.434,247.764 69.823,247.680 70.034 C 247.596 70.244,247.471 70.567,247.403 70.750 C 247.302 71.022,247.255 70.960,247.150 70.417 C 246.863 68.926,246.704 68.329,246.542 68.128 C 246.448 68.012,246.331 67.617,246.283 67.250 C 246.145 66.207,245.849 64.970,245.688 64.768 C 245.545 64.587,245.505 64.423,245.199 62.784 C 245.117 62.344,244.964 61.897,244.859 61.792 C 244.753 61.686,244.667 61.319,244.667 60.977 C 244.667 60.634,244.592 60.307,244.500 60.250 C 244.408 60.193,244.333 59.957,244.333 59.724 C 244.333 59.491,244.228 59.064,244.099 58.775 C 243.969 58.486,243.816 58.025,243.758 57.750 C 243.414 56.122,243.320 55.767,243.187 55.601 C 243.106 55.500,242.999 55.154,242.949 54.833 C 242.767 53.658,242.493 52.593,242.332 52.432 C 242.241 52.341,242.167 52.024,242.167 51.727 C 242.167 51.429,242.102 51.146,242.022 51.097 C 241.943 51.048,241.838 50.659,241.790 50.233 C 241.742 49.807,241.629 49.412,241.538 49.354 C 241.448 49.297,241.334 48.950,241.284 48.583 C 241.143 47.531,240.848 46.303,240.688 46.101 C 240.608 46.000,240.500 45.692,240.448 45.417 C 240.205 44.115,239.988 43.269,239.855 43.101 C 239.712 42.921,239.671 42.756,239.366 41.117 C 239.284 40.677,239.131 40.231,239.025 40.125 C 238.920 40.020,238.833 39.653,238.833 39.310 C 238.833 38.967,238.758 38.640,238.667 38.583 C 238.575 38.527,238.500 38.290,238.500 38.057 C 238.500 37.824,238.394 37.397,238.264 37.109 C 238.134 36.820,237.989 36.358,237.941 36.083 C 237.739 34.924,237.535 34.159,237.375 33.961 C 237.281 33.845,237.165 33.450,237.116 33.083 C 236.979 32.041,236.682 30.804,236.522 30.601 C 236.378 30.421,236.338 30.256,236.033 28.617 C 235.951 28.177,235.797 27.731,235.692 27.625 C 235.586 27.520,235.500 27.153,235.500 26.810 C 235.500 26.467,235.425 26.140,235.333 26.083 C 235.242 26.027,235.167 25.790,235.167 25.557 C 235.167 25.324,235.061 24.897,234.932 24.609 C 234.803 24.320,234.650 23.858,234.591 23.583 C 234.248 21.955,234.153 21.601,234.020 21.434 C 233.939 21.333,233.832 20.987,233.782 20.667 C 233.600 19.491,233.326 18.426,233.165 18.265 C 233.074 18.174,233.000 17.857,233.000 17.560 C 233.000 17.263,232.935 16.979,232.855 16.930 C 232.776 16.881,232.672 16.492,232.624 16.067 C 232.576 15.641,232.462 15.245,232.372 15.188 C 232.281 15.130,232.167 14.783,232.118 14.417 C 231.976 13.364,231.681 12.136,231.522 11.934 C 231.441 11.833,231.333 11.525,231.282 11.250 C 231.037 9.944,230.821 9.103,230.687 8.934 C 230.606 8.833,230.499 8.487,230.449 8.167 C 230.267 6.991,229.993 5.926,229.832 5.765 C 229.741 5.674,229.667 5.357,229.667 5.060 C 229.667 4.763,229.602 4.479,229.522 4.430 C 229.443 4.381,229.337 3.985,229.288 3.551 C 229.240 3.116,229.117 2.733,229.016 2.700 C 228.916 2.666,228.833 2.439,228.833 2.194 C 228.832 1.950,228.697 1.375,228.533 0.917 L 228.234 0.083 217.947 0.040 L 207.659 -0.003 207.496 0.426 M323.340 0.321 C 323.245 0.498,323.213 0.779,323.268 0.946 C 323.437 1.457,323.877 2.412,323.983 2.500 C 324.103 2.600,324.392 3.102,325.037 4.333 C 325.755 5.706,326.171 6.469,326.850 7.667 C 327.189 8.262,327.764 9.313,328.129 10.000 C 328.494 10.688,329.064 11.726,329.396 12.308 C 329.728 12.889,330.000 13.427,330.000 13.502 C 330.000 13.577,330.056 13.664,330.125 13.694 C 330.194 13.725,330.399 14.050,330.580 14.417 C 330.762 14.783,331.251 15.683,331.667 16.417 C 332.083 17.150,332.564 18.050,332.736 18.417 C 332.908 18.783,333.095 19.121,333.151 19.167 C 333.207 19.212,333.459 19.662,333.710 20.167 C 333.961 20.671,334.330 21.346,334.530 21.667 C 334.730 21.988,335.187 22.813,335.546 23.500 C 336.378 25.093,336.729 25.729,336.833 25.833 C 336.879 25.879,337.086 26.254,337.293 26.667 C 337.500 27.079,337.902 27.829,338.186 28.333 C 339.159 30.058,339.543 30.751,340.218 32.000 C 340.590 32.688,341.109 33.625,341.371 34.083 C 341.633 34.542,341.926 35.123,342.023 35.375 C 342.120 35.627,342.267 35.833,342.350 35.833 C 342.432 35.833,342.500 35.918,342.500 36.021 C 342.500 36.124,342.819 36.769,343.208 37.453 C 343.598 38.138,344.144 39.122,344.422 39.641 C 345.072 40.854,346.198 42.919,346.618 43.667 C 346.977 44.307,347.947 46.056,348.235 46.583 C 348.335 46.767,348.454 46.954,348.500 47.000 C 348.546 47.046,348.733 47.383,348.915 47.750 C 349.209 48.340,349.630 49.108,350.831 51.245 C 351.342 52.155,351.173 52.712,349.516 55.583 C 349.115 56.277,347.867 58.580,347.348 59.583 C 347.111 60.042,346.879 60.454,346.833 60.500 C 346.787 60.546,346.668 60.733,346.568 60.917 C 345.514 62.848,345.272 63.272,345.146 63.408 C 345.066 63.495,345.000 63.702,345.000 63.867 C 345.000 64.032,344.930 64.167,344.845 64.167 C 344.759 64.167,344.638 64.328,344.575 64.525 C 344.513 64.723,344.234 65.266,343.956 65.734 C 343.677 66.201,343.170 67.108,342.828 67.750 C 341.859 69.568,341.238 70.698,340.859 71.333 C 340.667 71.654,340.359 72.217,340.173 72.583 C 339.987 72.950,339.455 73.925,338.991 74.750 C 338.528 75.575,338.061 76.456,337.954 76.708 C 337.848 76.960,337.702 77.167,337.630 77.167 C 337.559 77.167,337.500 77.276,337.500 77.409 C 337.500 77.543,337.317 77.922,337.092 78.253 C 336.868 78.583,336.450 79.317,336.163 79.885 C 335.629 80.939,335.157 81.814,334.167 83.583 C 333.859 84.133,333.414 84.958,333.179 85.417 C 332.943 85.875,332.694 86.275,332.625 86.306 C 332.556 86.336,332.500 86.426,332.500 86.506 C 332.500 86.586,332.125 87.303,331.667 88.100 C 331.208 88.896,330.833 89.645,330.833 89.764 C 330.833 89.883,330.766 90.022,330.684 90.073 C 330.602 90.123,330.308 90.601,330.031 91.133 C 329.753 91.666,329.296 92.510,329.015 93.009 C 328.733 93.508,328.333 94.254,328.126 94.667 C 327.920 95.079,327.713 95.454,327.667 95.500 C 327.621 95.546,327.501 95.733,327.401 95.917 C 326.348 97.848,326.106 98.272,325.980 98.408 C 325.899 98.495,325.833 98.702,325.833 98.867 C 325.833 99.032,325.767 99.167,325.686 99.167 C 325.605 99.167,325.417 99.537,325.269 99.990 C 324.629 101.947,324.027 101.833,335.032 101.833 C 346.317 101.833,345.240 102.098,346.919 98.917 C 347.634 97.561,348.718 95.569,349.003 95.083 C 349.165 94.808,349.689 93.833,350.168 92.917 C 350.647 92.000,351.098 91.175,351.171 91.083 C 351.243 90.992,351.521 90.504,351.788 90.000 C 352.477 88.700,353.615 86.601,354.318 85.333 C 354.649 84.737,355.069 83.950,355.251 83.583 C 355.434 83.217,355.627 82.879,355.680 82.833 C 355.733 82.787,355.890 82.525,356.029 82.250 C 356.168 81.975,356.468 81.412,356.695 81.000 C 356.922 80.587,357.507 79.500,357.995 78.583 C 358.482 77.667,358.937 76.842,359.005 76.750 C 359.074 76.658,359.431 76.021,359.799 75.333 C 360.167 74.646,360.702 73.671,360.989 73.167 C 361.276 72.662,361.555 72.116,361.610 71.952 C 361.742 71.554,361.966 71.652,362.305 72.254 C 362.458 72.527,362.621 72.787,362.667 72.833 C 362.712 72.879,362.899 73.217,363.080 73.583 C 363.262 73.950,363.765 74.874,364.199 75.638 C 364.632 76.401,365.117 77.320,365.276 77.679 C 365.434 78.039,365.616 78.333,365.679 78.333 C 365.743 78.333,365.838 78.465,365.891 78.625 C 365.945 78.785,366.288 79.442,366.654 80.083 C 367.019 80.725,367.465 81.550,367.645 81.917 C 367.824 82.283,368.249 83.071,368.589 83.667 C 368.929 84.262,369.488 85.275,369.831 85.917 C 370.173 86.558,370.665 87.458,370.924 87.917 C 371.424 88.804,371.994 89.841,372.806 91.343 C 373.081 91.852,373.541 92.677,373.827 93.176 C 374.113 93.675,374.426 94.290,374.523 94.542 C 374.620 94.794,374.767 95.000,374.850 95.000 C 374.932 95.000,375.000 95.116,375.000 95.258 C 375.000 95.400,375.244 95.908,375.542 96.387 C 375.840 96.866,376.233 97.556,376.415 97.920 C 376.598 98.285,376.785 98.621,376.832 98.667 C 376.878 98.712,377.179 99.260,377.499 99.882 C 378.528 101.885,377.704 101.743,388.583 101.792 C 399.003 101.839,398.712 101.868,398.803 100.771 C 398.849 100.214,398.488 99.086,398.184 98.833 C 398.128 98.787,397.889 98.375,397.651 97.917 C 397.123 96.899,396.104 95.014,395.535 94.000 C 395.303 93.587,394.817 92.688,394.455 92.000 C 394.093 91.313,393.738 90.675,393.667 90.583 C 393.595 90.492,393.218 89.817,392.829 89.083 C 392.441 88.350,392.016 87.563,391.885 87.333 C 391.755 87.104,391.405 86.467,391.108 85.917 C 389.798 83.490,389.102 82.244,389.013 82.167 C 388.960 82.121,388.751 81.746,388.548 81.333 C 388.197 80.619,387.565 79.453,386.338 77.255 C 386.032 76.707,385.543 75.807,385.250 75.255 C 384.392 73.635,384.089 73.089,384.000 73.000 C 383.954 72.954,383.722 72.542,383.484 72.083 C 382.689 70.552,381.398 68.189,380.266 66.192 C 379.937 65.611,379.667 65.103,379.667 65.064 C 379.667 65.025,379.492 64.714,379.279 64.372 C 378.881 63.734,377.780 61.730,377.015 60.250 C 376.777 59.792,376.546 59.379,376.500 59.333 C 376.423 59.257,375.818 58.134,375.198 56.917 C 375.057 56.642,374.899 56.379,374.846 56.333 C 374.793 56.288,374.534 55.837,374.271 55.333 C 374.007 54.829,373.522 53.914,373.193 53.299 C 372.603 52.198,372.587 51.285,373.151 50.833 C 373.208 50.788,373.497 50.281,373.794 49.707 C 374.448 48.439,374.723 47.943,374.833 47.833 C 374.879 47.788,375.169 47.262,375.478 46.667 C 375.786 46.071,376.480 44.789,377.019 43.818 C 377.559 42.847,378.000 41.965,378.000 41.859 C 378.000 41.753,378.057 41.667,378.126 41.667 C 378.195 41.667,378.586 41.010,378.995 40.208 C 379.404 39.406,379.778 38.712,379.827 38.667 C 379.876 38.621,380.066 38.283,380.249 37.917 C 380.431 37.550,380.937 36.625,381.374 35.862 C 381.810 35.098,382.167 34.451,382.167 34.424 C 382.167 34.397,382.598 33.596,383.125 32.646 C 383.652 31.695,384.233 30.617,384.417 30.250 C 384.600 29.883,384.793 29.546,384.846 29.500 C 384.899 29.454,385.057 29.192,385.196 28.917 C 385.335 28.642,385.635 28.079,385.862 27.667 C 386.089 27.254,386.674 26.167,387.162 25.250 C 387.649 24.333,388.104 23.508,388.173 23.417 C 388.241 23.325,388.557 22.762,388.874 22.167 C 389.588 20.824,390.298 19.529,390.977 18.333 C 391.263 17.829,391.667 17.079,391.874 16.667 C 392.080 16.254,392.287 15.879,392.333 15.833 C 392.379 15.787,392.610 15.375,392.845 14.917 C 393.294 14.045,393.503 13.663,395.772 9.568 C 396.539 8.184,397.167 6.972,397.167 6.873 C 397.167 6.775,397.223 6.669,397.292 6.639 C 397.360 6.608,397.660 6.114,397.958 5.540 C 398.623 4.258,398.892 3.775,399.000 3.667 C 399.430 3.236,400.005 1.636,400.003 0.875 L 400.000 0.000 389.992 0.000 L 379.984 0.000 379.701 0.499 C 379.544 0.773,379.360 0.998,379.292 0.999 C 379.223 1.000,379.167 1.150,379.167 1.333 C 379.167 1.517,379.099 1.667,379.016 1.667 C 378.934 1.667,378.786 1.873,378.689 2.125 C 378.591 2.377,378.135 3.258,377.675 4.083 C 377.215 4.908,376.669 5.921,376.461 6.333 C 376.253 6.746,376.044 7.121,375.996 7.167 C 375.948 7.212,375.715 7.625,375.477 8.083 C 374.666 9.651,374.417 10.083,374.292 10.139 C 374.223 10.169,374.167 10.338,374.167 10.514 C 374.167 10.690,374.099 10.833,374.016 10.833 C 373.934 10.833,373.786 11.040,373.689 11.292 C 373.591 11.544,373.135 12.425,372.675 13.250 C 372.215 14.075,371.669 15.088,371.461 15.500 C 371.253 15.912,371.046 16.287,371.000 16.333 C 370.894 16.439,370.456 17.229,369.872 18.364 C 369.622 18.851,369.360 19.275,369.292 19.306 C 369.223 19.336,369.167 19.505,369.167 19.681 C 369.167 19.856,369.097 20.000,369.011 20.000 C 368.926 20.000,368.805 20.161,368.742 20.359 C 368.679 20.556,368.400 21.100,368.122 21.567 C 367.844 22.034,367.341 22.942,367.004 23.583 C 366.364 24.803,365.485 26.398,364.985 27.250 C 364.823 27.525,364.470 28.162,364.200 28.667 C 363.093 30.730,362.402 31.969,362.153 32.339 L 361.889 32.730 361.611 32.198 C 361.458 31.906,361.208 31.423,361.055 31.125 C 360.901 30.827,360.733 30.546,360.680 30.500 C 360.627 30.454,360.434 30.117,360.251 29.750 C 360.069 29.383,359.649 28.596,359.319 28.000 C 357.977 25.577,357.587 24.861,356.957 23.667 C 356.594 22.979,356.238 22.342,356.167 22.250 C 356.095 22.158,355.718 21.483,355.329 20.750 C 354.941 20.017,354.516 19.229,354.385 19.000 C 354.255 18.771,353.905 18.133,353.608 17.583 C 352.298 15.157,351.602 13.911,351.513 13.833 C 351.460 13.787,351.251 13.412,351.049 13.000 C 350.847 12.588,350.305 11.575,349.845 10.750 C 349.385 9.925,348.838 8.912,348.629 8.500 C 348.421 8.087,348.213 7.712,348.167 7.667 C 348.090 7.590,347.486 6.469,346.864 5.250 C 346.724 4.975,346.566 4.712,346.513 4.667 C 346.460 4.621,346.268 4.283,346.086 3.917 C 345.371 2.474,344.140 0.406,343.879 0.208 C 343.348 -0.192,323.556 -0.084,323.340 0.321 M179.333 20.659 C 179.333 20.747,179.587 20.866,179.897 20.924 C 180.671 21.069,181.556 21.842,181.979 22.743 C 182.323 23.474,182.333 23.707,182.333 30.528 C 182.333 40.933,182.698 40.502,173.792 40.614 L 168.833 40.676 168.833 30.588 L 168.833 20.500 174.083 20.500 C 177.306 20.500,179.333 20.561,179.333 20.659 M291.672 41.621 C 290.823 41.959,290.845 41.684,290.839 52.054 L 290.833 61.692 291.321 62.179 L 291.808 62.667 313.141 62.667 L 334.474 62.667 334.987 62.235 L 335.500 61.804 335.500 52.087 C 335.500 42.768,335.487 42.354,335.181 41.977 L 334.863 41.583 313.390 41.554 C 301.580 41.538,291.807 41.568,291.672 41.621 M73.901 60.833 C 65.607 60.901,63.667 60.959,63.442 61.145 C 63.048 61.473,63.015 100.981,63.408 101.922 L 63.650 102.500 73.819 102.500 C 83.702 102.500,83.993 102.491,84.161 102.178 C 84.363 101.800,84.410 60.885,84.208 60.802 C 84.140 60.773,79.501 60.788,73.901 60.833 " stroke="none" fill="#242c34" fill-rule="evenodd"></path></g></svg>