<svg xmlns="http://www.w3.org/2000/svg" viewBox="0 0 298.25 214.3">
    <defs>
        <style>.cls-1{fill:#fff;stroke:#1d1d1b;stroke-miterlimit:10;stroke-width:6px;}.cls-2{fill:#1d1d1b;}</style>
    </defs>
    <g>
        <polygon class="cls-1" points="149.16 5.25 292.51 211.3 5.74 211.3 149.16 5.25"/>
        <polygon class="cls-2" points="149.95 25.56 146.72 25.56 146.72 39.21 143.25 39.21 143.25 97.09 136.31 97.09 136.31 79.97 119.31 79.97 119.31 110.65 112.48 110.65 112.48 100.44 102.31 100.44 102.31 155.15 95.48 155.15 95.48 168.8 91.95 168.8 91.95 144.97 81.78 144.97 81.78 168.8 78.37 168.8 78.37 161.97 61.31 161.97 61.31 168.8 51.13 168.8 51.13 179.09 252.51 179.09 252.51 165.38 238.78 165.38 238.78 155.21 214.84 155.21 214.84 138.09 201.25 138.09 201.25 124.5 197.72 124.5 197.72 121.09 190.95 121.09 190.95 127.91 187.6 127.91 187.6 131.27 177.37 131.27 177.37 76.68 173.9 76.68 173.9 63.03 167.07 63.03 167.07 76.68 163.66 76.68 163.66 93.68 153.43 93.68 153.43 39.27 150.01 39.27 149.95 25.56"/>
    </g>
</svg>